
<svg xmlns="http://www.w3.org/2000/svg" width="466.138" height="511.99" viewBox="0 0 123.332 135.464"><path d="M64.332 129.24c0-1.64.013-2.947.06-3.993.17-3.888.612-4.603 3.355-4.46 2.186.114 2.314-.09 2.463 4.663.064 2.03.318 3.906.318 3.906l37.46-.04c.238-.153-1.925-6.444-7.545-21.94C92.028 84.174 92.33 85.091 93 84.834c.655-.252 4.715-.2 5.132.064.197.125 3.98 10.12 8.404 22.21 4.426 12.09 8.202 22.08 8.391 22.2.19.12 1.653.221 3.252.224 3.983.006 5.137.711 5.137 3.14 0 2.946 1.715 2.79-30.753 2.79-28.232 0-28.232 0-28.232-6.222z" fill="#d0d0d0"/><path d="M1.476 134.528c-3.137-2.133-1.041-4.524 4.088-4.662 3.43-.093 3.466-.101 3.835-.847 1.007-2.035 18.034-48.048 17.849-48.234-.118-.118-1.536-.28-3.151-.36-3.488-.173-4.202-.604-4.202-2.536 0-2.162 1.422-2.804 6.232-2.815 1.94-.005 2.95-.12 3.142-.36.394-.49 27.725-73.694 27.725-74.26 0-.404.541-.458 4.587-.454 4.631.005 5.078.076 5.24.843.198.946 27.222 73.002 27.598 73.589.377.59.612.635 3.293.642 5.569.013 8.103 2.097 5.598 4.603-1.132 1.133-20.07 1.077-21.209-.062-2.276-2.276-.565-4.235 3.916-4.482 1.8-.1 2.68-.262 2.776-.515.18-.469-7.42-20.757-7.886-21.053-1.001-.636-37.718-.245-38.14.406-.66 1.017-7.27 20.28-7.106 20.708.105.272.679.388 1.922.39 4.333.003 6.443 2.286 4.193 4.535-.825.825-.825.825-4.754.825-3.393 0-3.987.068-4.352.494-.58.677-17.784 47.684-17.67 48.278.091.47 36.106.93 37.95.484.58-.14.616-.327.705-3.702.106-4.02.577-4.914 2.587-4.914 2.348 0 2.724 1.18 2.726 8.537.002 5.574.002 5.574-28.29 5.557-28.294-.018-28.294-.018-29.202-.635zM78.65 47.55c.237-2.077-15.654-41.771-16.755-41.853-1.544-.115-.844-1.71-9.136 20.826C44.367 49.33 44.932 47.668 45.453 48c.943.6 33.126.164 33.196-.45z" fill="#2e2e2e"/></svg>
